# xmcd CD database file generated by grip 1.9
# 
# Track frame offsets:
#       150
#       14262
#       30597
#       53025
#       76572
#       93297
#       116495
#       129590
#       146010
#       172717
#       186522
#       204227
# 
# Disc length: 2891 seconds
# 
# Revision: 3
# Processed by: cddbd v1.4b41PL1 Copyright (c) Steve Scherf et al.
# Submitted via: grip 1.9
# 
DISCID=8e0b490c
DTITLE=Phonus Balonus - Wild Woman
DYEAR=1900
DGENRE=
TTITLE0=Let's make love
TTITLE1=Pee bee's blues
TTITLE2=I sing the blues
TTITLE3=Count on me
TTITLE4=Wild woman
TTITLE5=I got it
TTITLE6=If I can't be first
TTITLE7=Neighbour, neighbour
TTITLE8=That's why I'm crying
TTITLE9=Nobody knows
TTITLE10=Pack it up
TTITLE11=Good rockin'daddy
EXTD=
EXTT0=
EXTT1=
EXTT2=
EXTT3=
EXTT4=
EXTT5=
EXTT6=
EXTT7=
EXTT8=
EXTT9=
EXTT10=
EXTT11=
PLAYORDER=
